<svg xmlns="http://www.w3.org/2000/svg" viewBox="57.17 62.19 460.67 431.87"><rect height="100%" width="100%" x="57.17" y="62.19" fill="rgba(38, 75, 171, 1)"/> <svg version="1.1" id="Layer_1" xmlns="http://www.w3.org/2000/svg" xmlns:xlink="http://www.w3.org/1999/xlink" x="127" y="132" viewBox="9.481246948242188 14.450000762939453 188.5240936279297 163.35000610351562" xml:space="preserve" height="275" width="320" preserveAspectRatio="xMinYMin" enable-background="new 0 0 200 200" style="overflow: visible;"><path class="st0" d="M40.9,94L66,109.2c1.1,0.7,2.5,0.3,3.1-0.8l6.6-10.9c0.7-1.1,0.3-2.5-0.8-3.1L49.8,79.2   c-1.1-0.7-2.5-0.3-3.1,0.8l-6.6,10.9C39.5,91.9,39.8,93.3,40.9,94z" style="fill: #FFFFFF; fill-opacity: 1;"></path><path class="st0" d="M131.1,96.6l6.6,10.9c0.7,1.1,2.1,1.4,3.1,0.8L165.9,93c1.1-0.7,1.4-2.1,0.8-3.1L160.1,79   c-0.7-1.1-2.1-1.4-3.1-0.8l-25.2,15.2C130.8,94.1,130.4,95.5,131.1,96.6z" style="fill: #FFFFFF; fill-opacity: 1;"></path><path class="st0" d="M108.9,138.8l-12.7,0c-1.3,0-2.3,1-2.3,2.3l0,29.4c0,1.3,1,2.3,2.3,2.3l12.7,0c1.3,0,2.3-1,2.3-2.3V141   C111.2,139.8,110.1,138.8,108.9,138.8z" style="fill: #FFFFFF; fill-opacity: 1;"></path><path class="st0" d="M82.7,139H70.3c-0.9,0-1.6,0.7-1.6,1.6v13.2c0,0.9-0.7,1.6-1.6,1.6H45.6c-2.4,0-3.9-2.6-2.7-4.7l17.7-30.8   c0.4-0.7,0.2-1.7-0.5-2.1l-0.2-0.1c-0.1-0.1-0.2-0.2-0.4-0.3L34.3,102c-1.1-0.7-2.5-0.3-3.1,0.8l-5.9,9.7c-0.7,1.1-0.3,2.5,0.8,3.1   l14.1,8.5l-25.5,44.3c-0.6,1,0.1,2.3,1.3,2.3h55.9c0,0,0,0,0,0h10.9c0.9,0,1.6-0.7,1.6-1.6v-28.8C84.3,139.7,83.6,139,82.7,139z" style="fill: #FFFFFF; fill-opacity: 1;"></path><path class="st0" d="M192.8,168.5l-25.6-44.3l14.1-8.6c1.1-0.7,1.4-2.1,0.8-3.1l-5.9-9.7c-0.7-1.1-2.1-1.4-3.1-0.8l-25.1,15.2   c-0.1,0.1-0.3,0.2-0.4,0.3l-0.3,0.2c-0.7,0.4-1,1.4-0.5,2.1l17.8,30.8c1.2,2.1-0.3,4.7-2.7,4.7h-22.7c-0.9,0-1.6-0.7-1.6-1.6v-13.2   c0-0.9-0.7-1.6-1.6-1.6h-12.4c-0.9,0-1.6,0.7-1.6,1.6v28.8c0,0.9,0.7,1.6,1.6,1.6h10.9c0,0,0,0,0,0h57   C192.6,170.9,193.4,169.6,192.8,168.5z" style="fill: #FFFFFF; fill-opacity: 1;"></path><path class="st0" d="M55.3,69.4L80,83.7l1.3,0.8c0.7,0.5,1.7,0.2,2.2-0.6l18.9-32.7c0.6-1,2.1-1,2.7,0l12.6,21.9   c0,0.1,0.1,0.2,0.1,0.3l5.7,9.9c0,0,0,0,0,0.1l0.3,0.6c0.4,0.8,1.4,1,2.2,0.6l1-0.6l25-14.4c1.1-0.6,1.5-2,0.8-3.1l-5.7-9.9   c-0.6-1.1-2-1.5-3.1-0.8l-13.9,8.1L105,20.2c-0.6-1-2.1-1-2.7,0L77.2,63.7l-14-8.1c-1.1-0.6-2.5-0.3-3.1,0.8l-5.7,9.9   C53.8,67.4,54.2,68.8,55.3,69.4z" style="fill: #FFFFFF; fill-opacity: 1;"></path><path class="st0" d="M106.6,92.5c-1.3-2.3-4.6-2.3-5.9,0l-14.3,24.8c-1.3,2.3,0.3,5.1,2.9,5.1H118c2.6,0,4.2-2.8,2.9-5.1   L106.6,92.5z" style="fill: #FFFFFF; fill-opacity: 1;"></path></svg> <svg y="407" viewBox="0.3100000023841858 8.630000114440918 306.2799987792969 16.299999237060547" x="134" height="16" width="306" style="overflow: visible;"><g fill="#FFFFFF" fill-opacity="1" style=""><path d="M9.70 24.91L7.33 24.91L6.68 21.14L3.25 21.14L2.65 24.91L0.31 24.91L3.20 8.63L6.60 8.63L9.70 24.91ZM4.89 10.66L3.54 19.24L6.37 19.24L4.89 10.66ZM17.16 20.05L17.16 8.63L19.32 8.63L19.32 24.91L16.95 24.91L13.52 13.16L13.52 24.91L11.36 24.91L11.36 8.63L13.83 8.63L17.16 20.05ZM30.37 24.91L28.00 24.91L27.35 21.14L23.92 21.14L23.32 24.91L20.98 24.91L23.87 8.63L27.27 8.63L30.37 24.91ZM25.56 10.66L24.21 19.24L27.04 19.24L25.56 10.66ZM34.37 8.63L34.37 23.01L38.40 23.01L38.40 24.91L32.03 24.91L32.03 8.63L34.37 8.63ZM44.46 19.76L44.46 24.91L42.09 24.91L42.09 19.76L38.61 8.63L41.00 8.63L43.26 17.60L45.40 8.63L47.79 8.63L44.46 19.76ZM48.02 8.63L55.82 8.63L55.82 10.53L53.09 10.53L53.09 24.91L50.75 24.91L50.75 10.53L48.02 10.53L48.02 8.63ZM57.51 24.91L57.51 8.63L59.85 8.63L59.85 24.91L57.51 24.91ZM70.25 10.92L70.25 13.73L67.86 13.73L67.86 11.23Q67.86 10.76 67.72 10.62Q67.57 10.48 67.11 10.48L67.11 10.48L65.78 10.48Q65.31 10.48 65.16 10.62Q65 10.76 65 11.23L65 11.23L65 22.33Q65 22.80 65.16 22.95Q65.31 23.09 65.78 23.09L65.78 23.09L67.11 23.09Q67.57 23.09 67.72 22.95Q67.86 22.80 67.86 22.33L67.86 22.33L67.86 19.86L70.25 19.86L70.25 22.62Q70.25 24.93 67.81 24.93L67.81 24.93L65.05 24.93Q62.63 24.93 62.63 22.62L62.63 22.62L62.63 10.92Q62.63 8.63 65.05 8.63L65.05 8.63L67.81 8.63Q70.25 8.63 70.25 10.92L70.25 10.92ZM83.82 10.92L83.82 13.73L81.43 13.73L81.43 11.23Q81.43 10.76 81.29 10.62Q81.15 10.48 80.68 10.48L80.68 10.48L79.35 10.48Q78.88 10.48 78.73 10.62Q78.57 10.76 78.57 11.23L78.57 11.23L78.57 22.33Q78.57 22.80 78.73 22.95Q78.88 23.09 79.35 23.09L79.35 23.09L80.68 23.09Q81.15 23.09 81.29 22.95Q81.43 22.80 81.43 22.33L81.43 22.33L81.43 19.86L83.82 19.86L83.82 22.62Q83.82 24.93 81.38 24.93L81.38 24.93L78.62 24.93Q76.21 24.93 76.21 22.62L76.21 22.62L76.21 10.92Q76.21 8.63 78.62 8.63L78.62 8.63L81.38 8.63Q83.82 8.63 83.82 10.92L83.82 10.92ZM88.45 8.63L88.45 8.63L91.34 8.63Q93.76 8.63 93.76 10.92L93.76 10.92L93.76 22.62Q93.76 24.91 91.34 24.91L91.34 24.91L88.45 24.91Q86.01 24.91 86.01 22.62L86.01 22.62L86.01 10.92Q86.01 8.63 88.45 8.63ZM91.42 22.26L91.42 22.26L91.42 11.28Q91.42 10.82 91.26 10.67Q91.10 10.53 90.64 10.53L90.64 10.53L89.13 10.53Q88.66 10.53 88.52 10.67Q88.37 10.82 88.37 11.28L88.37 11.28L88.37 22.26Q88.37 22.72 88.52 22.87Q88.66 23.01 89.13 23.01L89.13 23.01L90.64 23.01Q91.10 23.01 91.26 22.87Q91.42 22.72 91.42 22.26ZM98.70 8.63L98.70 23.01L102.73 23.01L102.73 24.91L96.36 24.91L96.36 8.63L98.70 8.63ZM106.52 8.63L106.52 23.01L110.55 23.01L110.55 24.91L104.18 24.91L104.18 8.63L106.52 8.63ZM120.35 24.91L117.99 24.91L117.34 21.14L113.91 21.14L113.31 24.91L110.97 24.91L113.85 8.63L117.26 8.63L120.35 24.91ZM115.54 10.66L114.19 19.24L117.03 19.24L115.54 10.66ZM127.74 14.95L127.74 14.95L127.74 11.23Q127.74 10.76 127.58 10.62Q127.43 10.48 126.96 10.48L126.96 10.48L124.36 10.48L124.36 15.70L126.96 15.70Q127.43 15.70 127.58 15.56Q127.74 15.42 127.74 14.95ZM127.74 22.31L127.74 22.31L127.74 18.30Q127.74 17.84 127.58 17.69Q127.43 17.55 126.96 17.55L126.96 17.55L124.36 17.55L124.36 23.06L126.96 23.06Q127.43 23.06 127.58 22.92Q127.74 22.78 127.74 22.31ZM122.02 24.91L122.02 8.63L127.66 8.63Q130.10 8.63 130.10 10.92L130.10 10.92L130.10 15.05Q130.10 16.43 129.06 16.67L129.06 16.67Q130.10 16.93 130.10 18.17L130.10 18.17L130.10 22.62Q130.10 24.91 127.66 24.91L127.66 24.91L122.02 24.91ZM134.97 8.63L134.97 8.63L137.85 8.63Q140.27 8.63 140.27 10.92L140.27 10.92L140.27 22.62Q140.27 24.91 137.85 24.91L137.85 24.91L134.97 24.91Q132.52 24.91 132.52 22.62L132.52 22.62L132.52 10.92Q132.52 8.63 134.97 8.63ZM137.93 22.26L137.93 22.26L137.93 11.28Q137.93 10.82 137.77 10.67Q137.62 10.53 137.15 10.53L137.15 10.53L135.64 10.53Q135.17 10.53 135.03 10.67Q134.89 10.82 134.89 11.28L134.89 11.28L134.89 22.26Q134.89 22.72 135.03 22.87Q135.17 23.01 135.64 23.01L135.64 23.01L137.15 23.01Q137.62 23.01 137.77 22.87Q137.93 22.72 137.93 22.26ZM146.48 18.33L145.21 18.33L145.21 24.91L142.87 24.91L142.87 8.63L148.20 8.63Q150.62 8.63 150.62 10.92L150.62 10.92L150.62 16.02Q150.62 17.99 148.88 18.28L148.88 18.28L151.45 24.91L148.93 24.91L146.48 18.33ZM147.50 10.53L145.21 10.53L145.21 16.46L147.50 16.46Q147.97 16.46 148.12 16.32Q148.28 16.17 148.28 15.70L148.28 15.70L148.28 11.28Q148.28 10.82 148.12 10.67Q147.97 10.53 147.50 10.53L147.50 10.53ZM161.51 24.91L159.15 24.91L158.50 21.14L155.06 21.14L154.47 24.91L152.13 24.91L155.01 8.63L158.42 8.63L161.51 24.91ZM156.70 10.66L155.35 19.24L158.18 19.24L156.70 10.66ZM161.95 8.63L169.75 8.63L169.75 10.53L167.02 10.53L167.02 24.91L164.68 24.91L164.68 10.53L161.95 10.53L161.95 8.63ZM171.44 24.91L171.44 8.63L173.78 8.63L173.78 24.91L171.44 24.91ZM179.01 8.63L179.01 8.63L181.90 8.63Q184.31 8.63 184.31 10.92L184.31 10.92L184.31 22.62Q184.31 24.91 181.90 24.91L181.90 24.91L179.01 24.91Q176.57 24.91 176.57 22.62L176.57 22.62L176.57 10.92Q176.57 8.63 179.01 8.63ZM181.97 22.26L181.97 22.26L181.97 11.28Q181.97 10.82 181.82 10.67Q181.66 10.53 181.19 10.53L181.19 10.53L179.69 10.53Q179.22 10.53 179.07 10.67Q178.93 10.82 178.93 11.28L178.93 11.28L178.93 22.26Q178.93 22.72 179.07 22.87Q179.22 23.01 179.69 23.01L179.69 23.01L181.19 23.01Q181.66 23.01 181.82 22.87Q181.97 22.72 181.97 22.26ZM192.71 20.05L192.71 8.63L194.87 8.63L194.87 24.91L192.50 24.91L189.07 13.16L189.07 24.91L186.91 24.91L186.91 8.63L189.38 8.63L192.71 20.05ZM203.71 17.45L203.71 23.01L208.42 23.01L208.42 24.91L201.34 24.91L201.34 8.63L208.23 8.63L208.23 10.53L203.71 10.53L203.71 15.55L207.45 15.55L207.45 17.45L203.71 17.45ZM216.06 20.05L216.06 8.63L218.22 8.63L218.22 24.91L215.85 24.91L212.42 13.16L212.42 24.91L210.26 24.91L210.26 8.63L212.73 8.63L216.06 20.05ZM224.28 22.75L226.49 8.63L228.90 8.63L225.97 24.91L222.64 24.91L219.70 8.63L222.12 8.63L224.28 22.75ZM230.59 24.91L230.59 8.63L232.93 8.63L232.93 24.91L230.59 24.91ZM239.46 18.33L238.19 18.33L238.19 24.91L235.85 24.91L235.85 8.63L241.18 8.63Q243.59 8.63 243.59 10.92L243.59 10.92L243.59 16.02Q243.59 17.99 241.85 18.28L241.85 18.28L244.43 24.91L241.90 24.91L239.46 18.33ZM240.47 10.53L238.19 10.53L238.19 16.46L240.47 16.46Q240.94 16.46 241.10 16.32Q241.25 16.17 241.25 15.70L241.25 15.70L241.25 11.28Q241.25 10.82 241.10 10.67Q240.94 10.53 240.47 10.53L240.47 10.53ZM248.46 8.63L248.46 8.63L251.34 8.63Q253.76 8.63 253.76 10.92L253.76 10.92L253.76 22.62Q253.76 24.91 251.34 24.91L251.34 24.91L248.46 24.91Q246.01 24.91 246.01 22.62L246.01 22.62L246.01 10.92Q246.01 8.63 248.46 8.63ZM251.42 22.26L251.42 22.26L251.42 11.28Q251.42 10.82 251.26 10.67Q251.11 10.53 250.64 10.53L250.64 10.53L249.13 10.53Q248.66 10.53 248.52 10.67Q248.38 10.82 248.38 11.28L248.38 11.28L248.38 22.26Q248.38 22.72 248.52 22.87Q248.66 23.01 249.13 23.01L249.13 23.01L250.64 23.01Q251.11 23.01 251.26 22.87Q251.42 22.72 251.42 22.26ZM262.16 20.05L262.16 8.63L264.32 8.63L264.32 24.91L261.95 24.91L258.52 13.16L258.52 24.91L256.36 24.91L256.36 8.63L258.83 8.63L262.16 20.05ZM269.07 13.03L269.07 24.91L267.02 24.91L267.02 8.63L269.59 8.63L272.38 18.72L275.16 8.63L277.73 8.63L277.73 24.91L275.68 24.91L275.68 13L273.44 21.37L271.31 21.37L269.07 13.03ZM282.80 17.45L282.80 23.01L287.51 23.01L287.51 24.91L280.44 24.91L280.44 8.63L287.33 8.63L287.33 10.53L282.80 10.53L282.80 15.55L286.55 15.55L286.55 17.45L282.80 17.45ZM295.15 20.05L295.15 8.63L297.31 8.63L297.31 24.91L294.94 24.91L291.51 13.16L291.51 24.91L289.35 24.91L289.35 8.63L291.82 8.63L295.15 20.05ZM298.79 8.63L306.59 8.63L306.59 10.53L303.86 10.53L303.86 24.91L301.52 24.91L301.52 10.53L298.79 10.53L298.79 8.63Z" transform="translate(0, 0)"></path></g></svg></svg>